<svg width="39" height="38" viewBox="0 0 39 38" fill="none" xmlns="http://www.w3.org/2000/svg">
<g filter="url(#filter0_d_349_8)">
<circle cx="19.7144" cy="15" r="15" fill="white"/>
<path d="M15.762 6C13.1362 6 11 8.13619 11 10.7619V18.381C11 21.0067 13.1362 23.1429 15.762 23.1429H23.381C26.0067 23.1429 28.1429 21.0067 28.1429 18.381V10.7619C28.1429 8.13619 26.0067 6 23.381 6H15.762ZM15.762 7.90476H23.381C24.9562 7.90476 26.2381 9.18667 26.2381 10.7619V18.381C26.2381 19.9562 24.9562 21.2381 23.381 21.2381H15.762C14.1867 21.2381 12.9048 19.9562 12.9048 18.381V10.7619C12.9048 9.18667 14.1867 7.90476 15.762 7.90476ZM24.3334 8.85714C24.0808 8.85714 23.8385 8.95748 23.6599 9.13609C23.4813 9.31469 23.381 9.55694 23.381 9.80952C23.381 10.0621 23.4813 10.3044 23.6599 10.483C23.8385 10.6616 24.0808 10.7619 24.3334 10.7619C24.586 10.7619 24.8282 10.6616 25.0068 10.483C25.1854 10.3044 25.2858 10.0621 25.2858 9.80952C25.2858 9.55694 25.1854 9.31469 25.0068 9.13609C24.8282 8.95748 24.586 8.85714 24.3334 8.85714ZM19.5715 9.80952C16.9458 9.80952 14.8096 11.9457 14.8096 14.5714C14.8096 17.1971 16.9458 19.3333 19.5715 19.3333C22.1972 19.3333 24.3334 17.1971 24.3334 14.5714C24.3334 11.9457 22.1972 9.80952 19.5715 9.80952ZM19.5715 11.7143C21.1467 11.7143 22.4286 12.9962 22.4286 14.5714C22.4286 16.1467 21.1467 17.4286 19.5715 17.4286C17.9962 17.4286 16.7143 16.1467 16.7143 14.5714C16.7143 12.9962 17.9962 11.7143 19.5715 11.7143Z" fill="#007613"/>
</g>
<defs>
<filter id="filter0_d_349_8" x="0.714355" y="0" width="38" height="38" filterUnits="userSpaceOnUse" color-interpolation-filters="sRGB">
<feFlood flood-opacity="0" result="BackgroundImageFix"/>
<feColorMatrix in="SourceAlpha" type="matrix" values="0 0 0 0 0 0 0 0 0 0 0 0 0 0 0 0 0 0 127 0" result="hardAlpha"/>
<feOffset dy="4"/>
<feGaussianBlur stdDeviation="2"/>
<feComposite in2="hardAlpha" operator="out"/>
<feColorMatrix type="matrix" values="0 0 0 0 0 0 0 0 0 0 0 0 0 0 0 0 0 0 0.25 0"/>
<feBlend mode="normal" in2="BackgroundImageFix" result="effect1_dropShadow_349_8"/>
<feBlend mode="normal" in="SourceGraphic" in2="effect1_dropShadow_349_8" result="shape"/>
</filter>
</defs>
</svg>
