<svg width="38" height="38" viewBox="0 0 38 38" fill="none" xmlns="http://www.w3.org/2000/svg">
<g filter="url(#filter0_d_349_4)">
<circle cx="19" cy="15" r="15" fill="white"/>
<path d="M18.57 6C13.8372 6 10 9.8973 10 14.7042C10 18.7828 12.7653 22.1956 16.4932 23.14C16.4532 23.0225 16.4275 22.8861 16.4275 22.7171V21.2294C16.0797 21.2294 15.4969 21.2294 15.3505 21.2294C14.7642 21.2294 14.2429 20.9734 13.99 20.4976C13.7094 19.9688 13.6608 19.16 12.9652 18.6653C12.7588 18.5007 12.9159 18.3128 13.1538 18.3382C13.593 18.4644 13.9572 18.7705 14.3 19.2246C14.6414 19.6794 14.8021 19.7824 15.4398 19.7824C15.749 19.7824 16.2118 19.7642 16.6475 19.6946C16.8817 19.0904 17.2866 18.534 17.7816 18.2715C14.9277 17.9733 13.5658 16.5313 13.5658 14.5736C13.5658 13.7308 13.9193 12.9155 14.52 12.2286C14.3229 11.5467 14.075 10.1563 14.5957 9.62675C15.8797 9.62675 16.656 10.4725 16.8424 10.701C17.4823 10.4783 18.1851 10.3521 18.9235 10.3521C19.6634 10.3521 20.369 10.4783 21.0103 10.7024C21.1946 10.4754 21.9716 9.62675 23.2585 9.62675C23.7813 10.157 23.5306 11.5533 23.3313 12.2337C23.9284 12.9191 24.2798 13.7322 24.2798 14.5736C24.2798 16.5299 22.92 17.9712 20.0705 18.2707C20.8546 18.6864 21.4267 19.8542 21.4267 20.734V22.7171C21.4267 22.7926 21.4102 22.847 21.4017 22.9115C24.7411 21.7227 27.14 18.5021 27.14 14.7042C27.14 9.8973 23.3028 6 18.57 6Z" fill="#007613"/>
</g>
<defs>
<filter id="filter0_d_349_4" x="0" y="0" width="38" height="38" filterUnits="userSpaceOnUse" color-interpolation-filters="sRGB">
<feFlood flood-opacity="0" result="BackgroundImageFix"/>
<feColorMatrix in="SourceAlpha" type="matrix" values="0 0 0 0 0 0 0 0 0 0 0 0 0 0 0 0 0 0 127 0" result="hardAlpha"/>
<feOffset dy="4"/>
<feGaussianBlur stdDeviation="2"/>
<feComposite in2="hardAlpha" operator="out"/>
<feColorMatrix type="matrix" values="0 0 0 0 0 0 0 0 0 0 0 0 0 0 0 0 0 0 0.25 0"/>
<feBlend mode="normal" in2="BackgroundImageFix" result="effect1_dropShadow_349_4"/>
<feBlend mode="normal" in="SourceGraphic" in2="effect1_dropShadow_349_4" result="shape"/>
</filter>
</defs>
</svg>
