<svg width="38" height="38" viewBox="0 0 38 38" fill="none" xmlns="http://www.w3.org/2000/svg">
<g filter="url(#filter0_d_359_37)">
<circle cx="19" cy="15" r="15" fill="white"/>
</g>
<path d="M14.6 22.3333H10.9333V11.3333H14.6V22.3333ZM12.7674 9.86662C11.7532 9.86662 10.9333 9.04455 10.9333 8.03255C10.9333 7.02055 11.7547 6.19995 12.7674 6.19995C13.7779 6.19995 14.6 7.02202 14.6 8.03255C14.6 9.04455 13.7779 9.86662 12.7674 9.86662ZM27.8 22.3333H24.2749V16.98C24.2749 15.7032 24.2507 14.0613 22.4423 14.0613C20.6067 14.0613 20.3244 15.4517 20.3244 16.8876V22.3333H16.8V11.3252H20.1836V12.8293H20.2313C20.7021 11.964 21.8527 11.0517 23.5687 11.0517C27.14 11.0517 27.8 13.3316 27.8 16.2958C27.8 16.2958 27.8 22.3333 27.8 22.3333Z" fill="#007613"/>
<defs>
<filter id="filter0_d_359_37" x="0" y="0" width="38" height="38" filterUnits="userSpaceOnUse" color-interpolation-filters="sRGB">
<feFlood flood-opacity="0" result="BackgroundImageFix"/>
<feColorMatrix in="SourceAlpha" type="matrix" values="0 0 0 0 0 0 0 0 0 0 0 0 0 0 0 0 0 0 127 0" result="hardAlpha"/>
<feOffset dy="4"/>
<feGaussianBlur stdDeviation="2"/>
<feComposite in2="hardAlpha" operator="out"/>
<feColorMatrix type="matrix" values="0 0 0 0 0 0 0 0 0 0 0 0 0 0 0 0 0 0 0.25 0"/>
<feBlend mode="normal" in2="BackgroundImageFix" result="effect1_dropShadow_359_37"/>
<feBlend mode="normal" in="SourceGraphic" in2="effect1_dropShadow_359_37" result="shape"/>
</filter>
</defs>
</svg>
