<svg width="65" height="65" viewBox="0 0 65 65" fill="none" xmlns="http://www.w3.org/2000/svg">
<path fill-rule="evenodd" clip-rule="evenodd" d="M32.4999 60.9375C33.0386 60.9375 33.5553 60.7235 33.9362 60.3425C34.3171 59.9616 34.5311 59.4449 34.5311 58.9062V10.9972L47.3117 23.7818C47.6932 24.1633 48.2105 24.3775 48.7499 24.3775C49.2893 24.3775 49.8066 24.1633 50.188 23.7818C50.5694 23.4004 50.7837 22.8831 50.7837 22.3437C50.7837 21.8043 50.5694 21.287 50.188 20.9056L33.938 4.65559C33.7493 4.46643 33.5252 4.31635 33.2784 4.21395C33.0316 4.11155 32.7671 4.05884 32.4999 4.05884C32.2327 4.05884 31.9681 4.11155 31.7214 4.21395C31.4746 4.31635 31.2504 4.46643 31.0618 4.65559L14.8118 20.9056C14.6229 21.0944 14.4731 21.3187 14.3709 21.5654C14.2687 21.8122 14.2161 22.0766 14.2161 22.3437C14.2161 22.8831 14.4303 23.4004 14.8118 23.7818C15.1932 24.1633 15.7105 24.3775 16.2499 24.3775C16.7893 24.3775 17.3066 24.1633 17.688 23.7818L30.4686 10.9972V58.9062C30.4686 59.4449 30.6826 59.9616 31.0636 60.3425C31.4445 60.7235 31.9612 60.9375 32.4999 60.9375Z" fill="white"/>
</svg>
